solid part
  facet normal 0.0 0.0 1.0
    outer loop
      vertex -0.09 -0.06 -0.03
      vertex 0.09 -0.06 -0.03
      vertex 0.09 0.06 -0.03
    endloop
  endfacet
  facet normal 0.0 0.0 1.0
    outer loop
      vertex -0.09 -0.06 -0.03
      vertex 0.09 0.06 -0.03
      vertex -0.09 0.06 -0.03
    endloop
  endfacet
  facet normal 0.0 0.0 1.0
    outer loop
      vertex -0.09 -0.06 0.03
      vertex 0.09 -0.06 0.03
      vertex 0.09 0.06 0.03
    endloop
  endfacet
  facet normal 0.0 0.0 1.0
    outer loop
      vertex -0.09 -0.06 0.03
      vertex 0.09 0.06 0.03
      vertex -0.09 0.06 0.03
    endloop
  endfacet
  facet normal 0.0 -1.0 0.0
    outer loop
      vertex -0.09 -0.06 -0.03
      vertex 0.09 -0.06 -0.03
      vertex 0.09 -0.06 0.03
    endloop
  endfacet
  facet normal 0.0 -1.0 0.0
    outer loop
      vertex -0.09 -0.06 -0.03
      vertex 0.09 -0.06 0.03
      vertex -0.09 -0.06 0.03
    endloop
  endfacet
  facet normal 0.0 1.0 0.0
    outer loop
      vertex 0.09 0.06 -0.03
      vertex -0.09 0.06 -0.03
      vertex -0.09 0.06 0.03
    endloop
  endfacet
  facet normal 0.0 1.0 -0.0
    outer loop
      vertex 0.09 0.06 -0.03
      vertex -0.09 0.06 0.03
      vertex 0.09 0.06 0.03
    endloop
  endfacet
  facet normal 1.0 0.0 0.0
    outer loop
      vertex 0.09 -0.06 -0.03
      vertex 0.09 0.06 -0.03
      vertex 0.09 0.06 0.03
    endloop
  endfacet
  facet normal 1.0 0.0 0.0
    outer loop
      vertex 0.09 -0.06 -0.03
      vertex 0.09 0.06 0.03
      vertex 0.09 -0.06 0.03
    endloop
  endfacet
  facet normal 1.0 0.0 0.0
    outer loop
      vertex -0.09 -0.06 -0.03
      vertex -0.09 0.06 -0.03
      vertex -0.09 0.06 0.03
    endloop
  endfacet
  facet normal 1.0 0.0 0.0
    outer loop
      vertex -0.09 -0.06 -0.03
      vertex -0.09 0.06 0.03
      vertex -0.09 -0.06 0.03
    endloop
  endfacet
endsolid part
