solid part
  facet normal 0.0 0.0 1.0
    outer loop
      vertex -0.11 -0.015 -0.015
      vertex 0.11 -0.015 -0.015
      vertex 0.11 0.015 -0.015
    endloop
  endfacet
  facet normal 0.0 0.0 1.0
    outer loop
      vertex -0.11 -0.015 -0.015
      vertex 0.11 0.015 -0.015
      vertex -0.11 0.015 -0.015
    endloop
  endfacet
  facet normal 0.0 0.0 1.0
    outer loop
      vertex -0.11 -0.015 0.015
      vertex 0.11 -0.015 0.015
      vertex 0.11 0.015 0.015
    endloop
  endfacet
  facet normal 0.0 0.0 1.0
    outer loop
      vertex -0.11 -0.015 0.015
      vertex 0.11 0.015 0.015
      vertex -0.11 0.015 0.015
    endloop
  endfacet
  facet normal 0.0 -1.0 0.0
    outer loop
      vertex -0.11 -0.015 -0.015
      vertex 0.11 -0.015 -0.015
      vertex 0.11 -0.015 0.015
    endloop
  endfacet
  facet normal 0.0 -1.0 0.0
    outer loop
      vertex -0.11 -0.015 -0.015
      vertex 0.11 -0.015 0.015
      vertex -0.11 -0.015 0.015
    endloop
  endfacet
  facet normal 0.0 1.0 0.0
    outer loop
      vertex 0.11 0.015 -0.015
      vertex -0.11 0.015 -0.015
      vertex -0.11 0.015 0.015
    endloop
  endfacet
  facet normal 0.0 1.0 -0.0
    outer loop
      vertex 0.11 0.015 -0.015
      vertex -0.11 0.015 0.015
      vertex 0.11 0.015 0.015
    endloop
  endfacet
  facet normal 1.0 0.0 0.0
    outer loop
      vertex 0.11 -0.015 -0.015
      vertex 0.11 0.015 -0.015
      vertex 0.11 0.015 0.015
    endloop
  endfacet
  facet normal 1.0 0.0 0.0
    outer loop
      vertex 0.11 -0.015 -0.015
      vertex 0.11 0.015 0.015
      vertex 0.11 -0.015 0.015
    endloop
  endfacet
  facet normal 1.0 0.0 0.0
    outer loop
      vertex -0.11 -0.015 -0.015
      vertex -0.11 0.015 -0.015
      vertex -0.11 0.015 0.015
    endloop
  endfacet
  facet normal 1.0 0.0 0.0
    outer loop
      vertex -0.11 -0.015 -0.015
      vertex -0.11 0.015 0.015
      vertex -0.11 -0.015 0.015
    endloop
  endfacet
endsolid part
